# xmcd CD database file
#
# Track frame offsets:
#	150
#	15558
#	26746
#	40981
#	54896
#	67826
#	83607
#	94749
#	108838
#	120886
#	136732
#	155221
#	171164
#	181006
#	194838
#	208929
#	218693
#	230092
#
# Disc length: 3261 seconds
#
# Revision: 0
# Processed by: cddbd v1.4PL0 Copyright (c) Steve Scherf et al.
# Submitted via: CDex 1.50Beta7
#
DISCID=ec0cbb12
DTITLE=art tatum - midnite collection
DYEAR=2000
DGENRE=Jazz
TTITLE0=indiana
TTITLE1=battery bounce
TTITLE2=lover
TTITLE3=tea fo two
TTITLE4=begin the beguine
TTITLE5=poor butterfly
TTITLE6=cocktails for two
TTITLE7=someone to watch over me
TTITLE8=art´s blues
TTITLE9=would you like to take a walk
TTITLE10=jitterbug waltz
TTITLE11=willow weep for me
TTITLE12=make belive
TTITLE13=to marvellous for words
TTITLE14=yesterdays
TTITLE15=i´ll never be the same
TTITLE16=i´ve got a right to sing the blues
TTITLE17=chloe
EXTD=YEAR: 2000
EXTT0=
EXTT1=
EXTT2=
EXTT3=
EXTT4=
EXTT5=
EXTT6=
EXTT7=
EXTT8=
EXTT9=
EXTT10=
EXTT11=
EXTT12=
EXTT13=
EXTT14=
EXTT15=
EXTT16=
EXTT17=
PLAYORDER=
